<mxfile host="65bd71144e">
    <diagram id="FzFFMFuQFj7lMlkxCULB" name="Crypto Trading Simulator">
        <mxGraphModel dx="4961" dy="2097" grid="1" gridSize="10" guides="1" tooltips="1" connect="1" arrows="1" fold="1" page="1" pageScale="1" pageWidth="827" pageHeight="1169" math="0" shadow="0">
            <root>
                <mxCell id="0"/>
                <mxCell id="1" parent="0"/>
                <mxCell id="7buog9ZX-WtcRgvftYjR-1" value="" style="rounded=0;whiteSpace=wrap;html=1;" vertex="1" parent="1">
                    <mxGeometry x="200" y="150" width="480" height="640" as="geometry"/>
                </mxCell>
                <mxCell id="7buog9ZX-WtcRgvftYjR-2" value="Hi {name}. Ready to Trade!" style="text;html=1;strokeColor=none;fillColor=none;align=center;verticalAlign=middle;whiteSpace=wrap;rounded=0;" vertex="1" parent="1">
                    <mxGeometry x="230" y="170" width="90" height="30" as="geometry"/>
                </mxCell>
                <mxCell id="7buog9ZX-WtcRgvftYjR-4" value="" style="rounded=1;whiteSpace=wrap;html=1;" vertex="1" parent="1">
                    <mxGeometry x="580" y="170" width="60" height="30" as="geometry"/>
                </mxCell>
                <mxCell id="7buog9ZX-WtcRgvftYjR-3" value="Portfolio" style="text;html=1;strokeColor=none;fillColor=none;align=center;verticalAlign=middle;whiteSpace=wrap;rounded=0;" vertex="1" parent="1">
                    <mxGeometry x="580" y="170" width="60" height="30" as="geometry"/>
                </mxCell>
                <mxCell id="7buog9ZX-WtcRgvftYjR-9" value="Popular coins based on market cap" style="text;html=1;strokeColor=none;fillColor=none;align=center;verticalAlign=middle;whiteSpace=wrap;rounded=0;" vertex="1" parent="1">
                    <mxGeometry x="325" y="320" width="195" height="30" as="geometry"/>
                </mxCell>
                <mxCell id="7buog9ZX-WtcRgvftYjR-10" value="News" style="rounded=0;whiteSpace=wrap;html=1;" vertex="1" parent="1">
                    <mxGeometry x="240" y="240" width="110" height="60" as="geometry"/>
                </mxCell>
                <mxCell id="7buog9ZX-WtcRgvftYjR-11" value="News" style="rounded=0;whiteSpace=wrap;html=1;" vertex="1" parent="1">
                    <mxGeometry x="380" y="240" width="120" height="60" as="geometry"/>
                </mxCell>
                <mxCell id="7buog9ZX-WtcRgvftYjR-12" value="News" style="rounded=0;whiteSpace=wrap;html=1;" vertex="1" parent="1">
                    <mxGeometry x="530" y="240" width="120" height="60" as="geometry"/>
                </mxCell>
                <mxCell id="7buog9ZX-WtcRgvftYjR-14" value="" style="rounded=0;whiteSpace=wrap;html=1;" vertex="1" parent="1">
                    <mxGeometry x="235" y="400" width="410" height="40" as="geometry"/>
                </mxCell>
                <mxCell id="7buog9ZX-WtcRgvftYjR-15" value="Name" style="text;html=1;strokeColor=none;fillColor=none;align=center;verticalAlign=middle;whiteSpace=wrap;rounded=0;" vertex="1" parent="1">
                    <mxGeometry x="245" y="365" width="75" height="30" as="geometry"/>
                </mxCell>
                <mxCell id="7buog9ZX-WtcRgvftYjR-16" value="Price" style="text;html=1;strokeColor=none;fillColor=none;align=center;verticalAlign=middle;whiteSpace=wrap;rounded=0;" vertex="1" parent="1">
                    <mxGeometry x="342.5" y="365" width="60" height="30" as="geometry"/>
                </mxCell>
                <mxCell id="7buog9ZX-WtcRgvftYjR-17" value="Market cap" style="text;html=1;strokeColor=none;fillColor=none;align=center;verticalAlign=middle;whiteSpace=wrap;rounded=0;" vertex="1" parent="1">
                    <mxGeometry x="450" y="365" width="70" height="30" as="geometry"/>
                </mxCell>
                <mxCell id="7buog9ZX-WtcRgvftYjR-18" value="Volume" style="text;html=1;strokeColor=none;fillColor=none;align=center;verticalAlign=middle;whiteSpace=wrap;rounded=0;" vertex="1" parent="1">
                    <mxGeometry x="560" y="365" width="60" height="30" as="geometry"/>
                </mxCell>
                <mxCell id="7buog9ZX-WtcRgvftYjR-19" value="String" style="text;html=1;strokeColor=none;fillColor=none;align=center;verticalAlign=middle;whiteSpace=wrap;rounded=0;" vertex="1" parent="1">
                    <mxGeometry x="252.5" y="405" width="60" height="30" as="geometry"/>
                </mxCell>
                <mxCell id="7buog9ZX-WtcRgvftYjR-20" value="Float" style="text;html=1;strokeColor=none;fillColor=none;align=center;verticalAlign=middle;whiteSpace=wrap;rounded=0;" vertex="1" parent="1">
                    <mxGeometry x="342.5" y="405" width="60" height="30" as="geometry"/>
                </mxCell>
                <mxCell id="7buog9ZX-WtcRgvftYjR-21" value="Float" style="text;html=1;strokeColor=none;fillColor=none;align=center;verticalAlign=middle;whiteSpace=wrap;rounded=0;" vertex="1" parent="1">
                    <mxGeometry x="455" y="405" width="60" height="30" as="geometry"/>
                </mxCell>
                <mxCell id="7buog9ZX-WtcRgvftYjR-22" value="Float" style="text;html=1;strokeColor=none;fillColor=none;align=center;verticalAlign=middle;whiteSpace=wrap;rounded=0;" vertex="1" parent="1">
                    <mxGeometry x="560" y="405" width="60" height="30" as="geometry"/>
                </mxCell>
                <mxCell id="7buog9ZX-WtcRgvftYjR-23" value="" style="rounded=0;whiteSpace=wrap;html=1;" vertex="1" parent="1">
                    <mxGeometry x="235" y="450" width="410" height="40" as="geometry"/>
                </mxCell>
                <mxCell id="7buog9ZX-WtcRgvftYjR-24" value="String" style="text;html=1;strokeColor=none;fillColor=none;align=center;verticalAlign=middle;whiteSpace=wrap;rounded=0;" vertex="1" parent="1">
                    <mxGeometry x="252.5" y="455" width="60" height="30" as="geometry"/>
                </mxCell>
                <mxCell id="7buog9ZX-WtcRgvftYjR-25" value="Float" style="text;html=1;strokeColor=none;fillColor=none;align=center;verticalAlign=middle;whiteSpace=wrap;rounded=0;" vertex="1" parent="1">
                    <mxGeometry x="342.5" y="455" width="60" height="30" as="geometry"/>
                </mxCell>
                <mxCell id="7buog9ZX-WtcRgvftYjR-26" value="Float" style="text;html=1;strokeColor=none;fillColor=none;align=center;verticalAlign=middle;whiteSpace=wrap;rounded=0;" vertex="1" parent="1">
                    <mxGeometry x="455" y="455" width="60" height="30" as="geometry"/>
                </mxCell>
                <mxCell id="7buog9ZX-WtcRgvftYjR-27" value="Float" style="text;html=1;strokeColor=none;fillColor=none;align=center;verticalAlign=middle;whiteSpace=wrap;rounded=0;" vertex="1" parent="1">
                    <mxGeometry x="560" y="455" width="60" height="30" as="geometry"/>
                </mxCell>
                <mxCell id="7buog9ZX-WtcRgvftYjR-28" value="" style="rounded=0;whiteSpace=wrap;html=1;" vertex="1" parent="1">
                    <mxGeometry x="235" y="500" width="410" height="40" as="geometry"/>
                </mxCell>
                <mxCell id="7buog9ZX-WtcRgvftYjR-29" value="String" style="text;html=1;strokeColor=none;fillColor=none;align=center;verticalAlign=middle;whiteSpace=wrap;rounded=0;" vertex="1" parent="1">
                    <mxGeometry x="252.5" y="505" width="60" height="30" as="geometry"/>
                </mxCell>
                <mxCell id="7buog9ZX-WtcRgvftYjR-30" value="Float" style="text;html=1;strokeColor=none;fillColor=none;align=center;verticalAlign=middle;whiteSpace=wrap;rounded=0;" vertex="1" parent="1">
                    <mxGeometry x="342.5" y="505" width="60" height="30" as="geometry"/>
                </mxCell>
                <mxCell id="7buog9ZX-WtcRgvftYjR-31" value="Float" style="text;html=1;strokeColor=none;fillColor=none;align=center;verticalAlign=middle;whiteSpace=wrap;rounded=0;" vertex="1" parent="1">
                    <mxGeometry x="455" y="505" width="60" height="30" as="geometry"/>
                </mxCell>
                <mxCell id="7buog9ZX-WtcRgvftYjR-32" value="Float" style="text;html=1;strokeColor=none;fillColor=none;align=center;verticalAlign=middle;whiteSpace=wrap;rounded=0;" vertex="1" parent="1">
                    <mxGeometry x="560" y="505" width="60" height="30" as="geometry"/>
                </mxCell>
                <mxCell id="7buog9ZX-WtcRgvftYjR-33" value="" style="rounded=0;whiteSpace=wrap;html=1;" vertex="1" parent="1">
                    <mxGeometry x="235" y="550" width="410" height="40" as="geometry"/>
                </mxCell>
                <mxCell id="7buog9ZX-WtcRgvftYjR-34" value="String" style="text;html=1;strokeColor=none;fillColor=none;align=center;verticalAlign=middle;whiteSpace=wrap;rounded=0;" vertex="1" parent="1">
                    <mxGeometry x="252.5" y="555" width="60" height="30" as="geometry"/>
                </mxCell>
                <mxCell id="7buog9ZX-WtcRgvftYjR-35" value="Float" style="text;html=1;strokeColor=none;fillColor=none;align=center;verticalAlign=middle;whiteSpace=wrap;rounded=0;" vertex="1" parent="1">
                    <mxGeometry x="342.5" y="555" width="60" height="30" as="geometry"/>
                </mxCell>
                <mxCell id="7buog9ZX-WtcRgvftYjR-36" value="Float" style="text;html=1;strokeColor=none;fillColor=none;align=center;verticalAlign=middle;whiteSpace=wrap;rounded=0;" vertex="1" parent="1">
                    <mxGeometry x="455" y="555" width="60" height="30" as="geometry"/>
                </mxCell>
                <mxCell id="7buog9ZX-WtcRgvftYjR-37" value="Float" style="text;html=1;strokeColor=none;fillColor=none;align=center;verticalAlign=middle;whiteSpace=wrap;rounded=0;" vertex="1" parent="1">
                    <mxGeometry x="560" y="555" width="60" height="30" as="geometry"/>
                </mxCell>
                <mxCell id="7buog9ZX-WtcRgvftYjR-38" value="" style="rounded=0;whiteSpace=wrap;html=1;" vertex="1" parent="1">
                    <mxGeometry x="235" y="600" width="410" height="40" as="geometry"/>
                </mxCell>
                <mxCell id="7buog9ZX-WtcRgvftYjR-39" value="String" style="text;html=1;strokeColor=none;fillColor=none;align=center;verticalAlign=middle;whiteSpace=wrap;rounded=0;" vertex="1" parent="1">
                    <mxGeometry x="252.5" y="605" width="60" height="30" as="geometry"/>
                </mxCell>
                <mxCell id="7buog9ZX-WtcRgvftYjR-40" value="Float" style="text;html=1;strokeColor=none;fillColor=none;align=center;verticalAlign=middle;whiteSpace=wrap;rounded=0;" vertex="1" parent="1">
                    <mxGeometry x="342.5" y="605" width="60" height="30" as="geometry"/>
                </mxCell>
                <mxCell id="7buog9ZX-WtcRgvftYjR-41" value="Float" style="text;html=1;strokeColor=none;fillColor=none;align=center;verticalAlign=middle;whiteSpace=wrap;rounded=0;" vertex="1" parent="1">
                    <mxGeometry x="455" y="605" width="60" height="30" as="geometry"/>
                </mxCell>
                <mxCell id="7buog9ZX-WtcRgvftYjR-42" value="Float" style="text;html=1;strokeColor=none;fillColor=none;align=center;verticalAlign=middle;whiteSpace=wrap;rounded=0;" vertex="1" parent="1">
                    <mxGeometry x="560" y="605" width="60" height="30" as="geometry"/>
                </mxCell>
                <mxCell id="7buog9ZX-WtcRgvftYjR-43" value="" style="rounded=0;whiteSpace=wrap;html=1;" vertex="1" parent="1">
                    <mxGeometry x="235" y="650" width="410" height="40" as="geometry"/>
                </mxCell>
                <mxCell id="7buog9ZX-WtcRgvftYjR-44" value="String" style="text;html=1;strokeColor=none;fillColor=none;align=center;verticalAlign=middle;whiteSpace=wrap;rounded=0;" vertex="1" parent="1">
                    <mxGeometry x="252.5" y="655" width="60" height="30" as="geometry"/>
                </mxCell>
                <mxCell id="7buog9ZX-WtcRgvftYjR-45" value="Float" style="text;html=1;strokeColor=none;fillColor=none;align=center;verticalAlign=middle;whiteSpace=wrap;rounded=0;" vertex="1" parent="1">
                    <mxGeometry x="342.5" y="655" width="60" height="30" as="geometry"/>
                </mxCell>
                <mxCell id="7buog9ZX-WtcRgvftYjR-46" value="Float" style="text;html=1;strokeColor=none;fillColor=none;align=center;verticalAlign=middle;whiteSpace=wrap;rounded=0;" vertex="1" parent="1">
                    <mxGeometry x="455" y="655" width="60" height="30" as="geometry"/>
                </mxCell>
                <mxCell id="7buog9ZX-WtcRgvftYjR-47" value="Float" style="text;html=1;strokeColor=none;fillColor=none;align=center;verticalAlign=middle;whiteSpace=wrap;rounded=0;" vertex="1" parent="1">
                    <mxGeometry x="560" y="655" width="60" height="30" as="geometry"/>
                </mxCell>
                <mxCell id="tWIWK1oPJ8PyRDs92ugW-1" value="" style="rounded=0;whiteSpace=wrap;html=1;" vertex="1" parent="1">
                    <mxGeometry x="-770" y="286.5" width="360" height="440" as="geometry"/>
                </mxCell>
                <mxCell id="tWIWK1oPJ8PyRDs92ugW-2" value="" style="rounded=1;whiteSpace=wrap;html=1;" vertex="1" parent="1">
                    <mxGeometry x="-695" y="356.5" width="210" height="280" as="geometry"/>
                </mxCell>
                <mxCell id="tWIWK1oPJ8PyRDs92ugW-3" value="Name" style="text;html=1;strokeColor=none;fillColor=none;align=center;verticalAlign=middle;whiteSpace=wrap;rounded=0;" vertex="1" parent="1">
                    <mxGeometry x="-620" y="406.5" width="60" height="30" as="geometry"/>
                </mxCell>
                <mxCell id="tWIWK1oPJ8PyRDs92ugW-4" value="Email" style="text;html=1;strokeColor=none;fillColor=none;align=center;verticalAlign=middle;whiteSpace=wrap;rounded=0;" vertex="1" parent="1">
                    <mxGeometry x="-620" y="486.5" width="60" height="30" as="geometry"/>
                </mxCell>
                <mxCell id="tWIWK1oPJ8PyRDs92ugW-5" value="" style="rounded=0;whiteSpace=wrap;html=1;" vertex="1" parent="1">
                    <mxGeometry x="-645" y="436.5" width="110" height="20" as="geometry"/>
                </mxCell>
                <mxCell id="tWIWK1oPJ8PyRDs92ugW-6" value="" style="rounded=0;whiteSpace=wrap;html=1;" vertex="1" parent="1">
                    <mxGeometry x="-645" y="516.5" width="110" height="20" as="geometry"/>
                </mxCell>
                <mxCell id="tWIWK1oPJ8PyRDs92ugW-7" value="" style="rounded=1;whiteSpace=wrap;html=1;" vertex="1" parent="1">
                    <mxGeometry x="-620" y="561.5" width="60" height="20" as="geometry"/>
                </mxCell>
                <mxCell id="tWIWK1oPJ8PyRDs92ugW-8" value="Login" style="text;html=1;strokeColor=none;fillColor=none;align=center;verticalAlign=middle;whiteSpace=wrap;rounded=0;" vertex="1" parent="1">
                    <mxGeometry x="-620" y="556.5" width="60" height="30" as="geometry"/>
                </mxCell>
                <mxCell id="tWIWK1oPJ8PyRDs92ugW-9" value="" style="rounded=1;whiteSpace=wrap;html=1;" vertex="1" parent="1">
                    <mxGeometry x="-620" y="591.5" width="60" height="20" as="geometry"/>
                </mxCell>
                <mxCell id="tWIWK1oPJ8PyRDs92ugW-10" value="Sign up" style="text;html=1;strokeColor=none;fillColor=none;align=center;verticalAlign=middle;whiteSpace=wrap;rounded=0;" vertex="1" parent="1">
                    <mxGeometry x="-620" y="586.5" width="60" height="30" as="geometry"/>
                </mxCell>
                <mxCell id="tWIWK1oPJ8PyRDs92ugW-11" value="" style="endArrow=classic;html=1;exitX=1;exitY=0.5;exitDx=0;exitDy=0;entryX=0;entryY=0.75;entryDx=0;entryDy=0;" edge="1" parent="1" source="tWIWK1oPJ8PyRDs92ugW-8" target="tWIWK1oPJ8PyRDs92ugW-12">
                    <mxGeometry width="50" height="50" relative="1" as="geometry">
                        <mxPoint x="-380" y="536.5" as="sourcePoint"/>
                        <mxPoint x="-330" y="406.5" as="targetPoint"/>
                    </mxGeometry>
                </mxCell>
                <mxCell id="tWIWK1oPJ8PyRDs92ugW-12" value="User Database" style="rounded=0;whiteSpace=wrap;html=1;" vertex="1" parent="1">
                    <mxGeometry x="-210" y="406.5" width="120" height="160" as="geometry"/>
                </mxCell>
                <mxCell id="tWIWK1oPJ8PyRDs92ugW-13" value="" style="endArrow=classic;html=1;exitX=0;exitY=0.5;exitDx=0;exitDy=0;" edge="1" parent="1" source="tWIWK1oPJ8PyRDs92ugW-12">
                    <mxGeometry width="50" height="50" relative="1" as="geometry">
                        <mxPoint x="-220" y="486.5" as="sourcePoint"/>
                        <mxPoint x="-410" y="486.5" as="targetPoint"/>
                    </mxGeometry>
                </mxCell>
                <mxCell id="tWIWK1oPJ8PyRDs92ugW-14" value="Returns user's data and rest of app runs" style="text;html=1;strokeColor=none;fillColor=none;align=center;verticalAlign=middle;whiteSpace=wrap;rounded=0;" vertex="1" parent="1">
                    <mxGeometry x="-340" y="441.5" width="110" height="30" as="geometry"/>
                </mxCell>
                <mxCell id="tWIWK1oPJ8PyRDs92ugW-15" value="Error message: &quot;no such user exists&quot;" style="text;html=1;strokeColor=none;fillColor=none;align=center;verticalAlign=middle;whiteSpace=wrap;rounded=0;" vertex="1" parent="1">
                    <mxGeometry x="-340" y="491.5" width="110" height="30" as="geometry"/>
                </mxCell>
                <mxCell id="tWIWK1oPJ8PyRDs92ugW-16" value="Get request&amp;nbsp;" style="text;html=1;strokeColor=none;fillColor=none;align=center;verticalAlign=middle;whiteSpace=wrap;rounded=0;rotation=-5;" vertex="1" parent="1">
                    <mxGeometry x="-399.98" y="551.94" width="70" height="30" as="geometry"/>
                </mxCell>
                <mxCell id="tWIWK1oPJ8PyRDs92ugW-17" value="User Database" style="rounded=0;whiteSpace=wrap;html=1;" vertex="1" parent="1">
                    <mxGeometry x="-210" y="586.5" width="120" height="160" as="geometry"/>
                </mxCell>
                <mxCell id="tWIWK1oPJ8PyRDs92ugW-18" value="" style="endArrow=classic;html=1;exitX=1;exitY=0.5;exitDx=0;exitDy=0;entryX=0;entryY=0.25;entryDx=0;entryDy=0;" edge="1" parent="1" source="tWIWK1oPJ8PyRDs92ugW-10" target="tWIWK1oPJ8PyRDs92ugW-17">
                    <mxGeometry width="50" height="50" relative="1" as="geometry">
                        <mxPoint x="-380" y="606.5" as="sourcePoint"/>
                        <mxPoint x="-330" y="556.5" as="targetPoint"/>
                    </mxGeometry>
                </mxCell>
                <mxCell id="tWIWK1oPJ8PyRDs92ugW-19" value="Post request" style="text;html=1;strokeColor=none;fillColor=none;align=center;verticalAlign=middle;whiteSpace=wrap;rounded=0;rotation=5;" vertex="1" parent="1">
                    <mxGeometry x="-389.98" y="616.5" width="69.98" height="30" as="geometry"/>
                </mxCell>
                <mxCell id="tWIWK1oPJ8PyRDs92ugW-20" value="" style="endArrow=classic;html=1;entryX=1.003;entryY=0.95;entryDx=0;entryDy=0;entryPerimeter=0;exitX=0;exitY=0.75;exitDx=0;exitDy=0;" edge="1" parent="1" source="tWIWK1oPJ8PyRDs92ugW-17" target="tWIWK1oPJ8PyRDs92ugW-1">
                    <mxGeometry width="50" height="50" relative="1" as="geometry">
                        <mxPoint x="-300" y="766.5" as="sourcePoint"/>
                        <mxPoint x="-250" y="716.5" as="targetPoint"/>
                    </mxGeometry>
                </mxCell>
                <mxCell id="tWIWK1oPJ8PyRDs92ugW-21" value="Success message: &quot;Account Created. Please Log in&quot;" style="text;html=1;strokeColor=none;fillColor=none;align=center;verticalAlign=middle;whiteSpace=wrap;rounded=0;" vertex="1" parent="1">
                    <mxGeometry x="-390" y="666.5" width="160" height="30" as="geometry"/>
                </mxCell>
                <mxCell id="tWIWK1oPJ8PyRDs92ugW-22" value="Error message:&lt;br&gt;&quot;Account already exists&quot;&lt;br&gt;OR&lt;br&gt;&quot;Invalid name or email&quot;" style="text;html=1;strokeColor=none;fillColor=none;align=center;verticalAlign=middle;whiteSpace=wrap;rounded=0;" vertex="1" parent="1">
                    <mxGeometry x="-390" y="723.5" width="165.01" height="30" as="geometry"/>
                </mxCell>
                <mxCell id="zg6MQ_LgUEUeMXdmGEfw-1" value="" style="rounded=0;whiteSpace=wrap;html=1;" vertex="1" parent="1">
                    <mxGeometry x="150" y="1450" width="520" height="570" as="geometry"/>
                </mxCell>
                <mxCell id="zg6MQ_LgUEUeMXdmGEfw-2" value="Coin_Name" style="text;html=1;strokeColor=none;fillColor=none;align=center;verticalAlign=middle;whiteSpace=wrap;rounded=0;" vertex="1" parent="1">
                    <mxGeometry x="242.5" y="1550" width="60" height="30" as="geometry"/>
                </mxCell>
                <mxCell id="zg6MQ_LgUEUeMXdmGEfw-3" value="Price" style="text;html=1;strokeColor=none;fillColor=none;align=center;verticalAlign=middle;whiteSpace=wrap;rounded=0;" vertex="1" parent="1">
                    <mxGeometry x="280" y="1600" width="60" height="30" as="geometry"/>
                </mxCell>
                <mxCell id="zg6MQ_LgUEUeMXdmGEfw-4" value="Market Cap" style="text;html=1;strokeColor=none;fillColor=none;align=center;verticalAlign=middle;whiteSpace=wrap;rounded=0;" vertex="1" parent="1">
                    <mxGeometry x="385" y="1600" width="60" height="30" as="geometry"/>
                </mxCell>
                <mxCell id="zg6MQ_LgUEUeMXdmGEfw-5" value="Volume" style="text;html=1;strokeColor=none;fillColor=none;align=center;verticalAlign=middle;whiteSpace=wrap;rounded=0;" vertex="1" parent="1">
                    <mxGeometry x="485" y="1600" width="60" height="30" as="geometry"/>
                </mxCell>
                <mxCell id="zg6MQ_LgUEUeMXdmGEfw-6" value="" style="endArrow=classic;html=1;" edge="1" parent="1" source="7buog9ZX-WtcRgvftYjR-1">
                    <mxGeometry width="50" height="50" relative="1" as="geometry">
                        <mxPoint x="630" y="520" as="sourcePoint"/>
                        <mxPoint x="680" y="470" as="targetPoint"/>
                    </mxGeometry>
                </mxCell>
                <mxCell id="zg6MQ_LgUEUeMXdmGEfw-8" value="" style="endArrow=classic;html=1;" edge="1" parent="1">
                    <mxGeometry width="50" height="50" relative="1" as="geometry">
                        <mxPoint x="620" y="380" as="sourcePoint"/>
                        <mxPoint x="720" y="350" as="targetPoint"/>
                    </mxGeometry>
                </mxCell>
                <mxCell id="zg6MQ_LgUEUeMXdmGEfw-9" value="" style="endArrow=classic;html=1;exitX=1;exitY=0.5;exitDx=0;exitDy=0;" edge="1" parent="1" source="7buog9ZX-WtcRgvftYjR-17">
                    <mxGeometry width="50" height="50" relative="1" as="geometry">
                        <mxPoint x="520" y="370" as="sourcePoint"/>
                        <mxPoint x="720" y="350" as="targetPoint"/>
                    </mxGeometry>
                </mxCell>
                <mxCell id="zg6MQ_LgUEUeMXdmGEfw-10" value="OnClick will rank coins based on it&amp;nbsp;" style="rounded=0;whiteSpace=wrap;html=1;" vertex="1" parent="1">
                    <mxGeometry x="720" y="320" width="90" height="60" as="geometry"/>
                </mxCell>
                <mxCell id="zg6MQ_LgUEUeMXdmGEfw-12" value="Buy / Sell" style="rounded=1;whiteSpace=wrap;html=1;" vertex="1" parent="1">
                    <mxGeometry x="510" y="1550" width="60" height="30" as="geometry"/>
                </mxCell>
                <mxCell id="zg6MQ_LgUEUeMXdmGEfw-13" value="Description" style="rounded=0;whiteSpace=wrap;html=1;" vertex="1" parent="1">
                    <mxGeometry x="230" y="1660" width="360" height="310" as="geometry"/>
                </mxCell>
                <mxCell id="zg6MQ_LgUEUeMXdmGEfw-17" value="Portfolio" style="rounded=1;whiteSpace=wrap;html=1;" vertex="1" parent="1">
                    <mxGeometry x="555" y="1480" width="70" height="30" as="geometry"/>
                </mxCell>
                <mxCell id="zg6MQ_LgUEUeMXdmGEfw-22" value="Home" style="rounded=1;whiteSpace=wrap;html=1;" vertex="1" parent="1">
                    <mxGeometry x="190" y="1480" width="67.5" height="30" as="geometry"/>
                </mxCell>
                <mxCell id="zg6MQ_LgUEUeMXdmGEfw-23" value="" style="rounded=0;whiteSpace=wrap;html=1;" vertex="1" parent="1">
                    <mxGeometry x="960" y="160" width="480" height="640" as="geometry"/>
                </mxCell>
                <mxCell id="zg6MQ_LgUEUeMXdmGEfw-31" value="" style="rounded=0;whiteSpace=wrap;html=1;" vertex="1" parent="1">
                    <mxGeometry x="990" y="271.5" width="410" height="40" as="geometry"/>
                </mxCell>
                <mxCell id="zg6MQ_LgUEUeMXdmGEfw-32" value="Name" style="text;html=1;strokeColor=none;fillColor=none;align=center;verticalAlign=middle;whiteSpace=wrap;rounded=0;" vertex="1" parent="1">
                    <mxGeometry x="1000" y="236.5" width="75" height="30" as="geometry"/>
                </mxCell>
                <mxCell id="zg6MQ_LgUEUeMXdmGEfw-33" value="Price" style="text;html=1;strokeColor=none;fillColor=none;align=center;verticalAlign=middle;whiteSpace=wrap;rounded=0;" vertex="1" parent="1">
                    <mxGeometry x="1097.5" y="236.5" width="60" height="30" as="geometry"/>
                </mxCell>
                <mxCell id="zg6MQ_LgUEUeMXdmGEfw-34" value="Number_of_Coins" style="text;html=1;strokeColor=none;fillColor=none;align=center;verticalAlign=middle;whiteSpace=wrap;rounded=0;" vertex="1" parent="1">
                    <mxGeometry x="1205" y="236.5" width="70" height="30" as="geometry"/>
                </mxCell>
                <mxCell id="zg6MQ_LgUEUeMXdmGEfw-35" value="Value_in_Cash" style="text;html=1;strokeColor=none;fillColor=none;align=center;verticalAlign=middle;whiteSpace=wrap;rounded=0;" vertex="1" parent="1">
                    <mxGeometry x="1315" y="236.5" width="60" height="30" as="geometry"/>
                </mxCell>
                <mxCell id="zg6MQ_LgUEUeMXdmGEfw-36" value="&quot;GBP&quot;" style="text;html=1;strokeColor=none;fillColor=none;align=center;verticalAlign=middle;whiteSpace=wrap;rounded=0;" vertex="1" parent="1">
                    <mxGeometry x="1007.5" y="276.5" width="60" height="30" as="geometry"/>
                </mxCell>
                <mxCell id="zg6MQ_LgUEUeMXdmGEfw-37" value="&quot;£1&quot;" style="text;html=1;strokeColor=none;fillColor=none;align=center;verticalAlign=middle;whiteSpace=wrap;rounded=0;" vertex="1" parent="1">
                    <mxGeometry x="1097.5" y="276.5" width="60" height="30" as="geometry"/>
                </mxCell>
                <mxCell id="zg6MQ_LgUEUeMXdmGEfw-38" value="Float" style="text;html=1;strokeColor=none;fillColor=none;align=center;verticalAlign=middle;whiteSpace=wrap;rounded=0;" vertex="1" parent="1">
                    <mxGeometry x="1210" y="276.5" width="60" height="30" as="geometry"/>
                </mxCell>
                <mxCell id="zg6MQ_LgUEUeMXdmGEfw-40" value="" style="rounded=0;whiteSpace=wrap;html=1;" vertex="1" parent="1">
                    <mxGeometry x="990" y="321.5" width="410" height="40" as="geometry"/>
                </mxCell>
                <mxCell id="zg6MQ_LgUEUeMXdmGEfw-41" value="String" style="text;html=1;strokeColor=none;fillColor=none;align=center;verticalAlign=middle;whiteSpace=wrap;rounded=0;" vertex="1" parent="1">
                    <mxGeometry x="1007.5" y="326.5" width="60" height="30" as="geometry"/>
                </mxCell>
                <mxCell id="zg6MQ_LgUEUeMXdmGEfw-42" value="Float" style="text;html=1;strokeColor=none;fillColor=none;align=center;verticalAlign=middle;whiteSpace=wrap;rounded=0;" vertex="1" parent="1">
                    <mxGeometry x="1097.5" y="326.5" width="60" height="30" as="geometry"/>
                </mxCell>
                <mxCell id="zg6MQ_LgUEUeMXdmGEfw-43" value="Float" style="text;html=1;strokeColor=none;fillColor=none;align=center;verticalAlign=middle;whiteSpace=wrap;rounded=0;" vertex="1" parent="1">
                    <mxGeometry x="1210" y="326.5" width="60" height="30" as="geometry"/>
                </mxCell>
                <mxCell id="zg6MQ_LgUEUeMXdmGEfw-44" value="Float" style="text;html=1;strokeColor=none;fillColor=none;align=center;verticalAlign=middle;whiteSpace=wrap;rounded=0;" vertex="1" parent="1">
                    <mxGeometry x="1315" y="326.5" width="60" height="30" as="geometry"/>
                </mxCell>
                <mxCell id="zg6MQ_LgUEUeMXdmGEfw-45" value="" style="rounded=0;whiteSpace=wrap;html=1;" vertex="1" parent="1">
                    <mxGeometry x="990" y="371.5" width="410" height="40" as="geometry"/>
                </mxCell>
                <mxCell id="zg6MQ_LgUEUeMXdmGEfw-46" value="String" style="text;html=1;strokeColor=none;fillColor=none;align=center;verticalAlign=middle;whiteSpace=wrap;rounded=0;" vertex="1" parent="1">
                    <mxGeometry x="1007.5" y="376.5" width="60" height="30" as="geometry"/>
                </mxCell>
                <mxCell id="zg6MQ_LgUEUeMXdmGEfw-47" value="Float" style="text;html=1;strokeColor=none;fillColor=none;align=center;verticalAlign=middle;whiteSpace=wrap;rounded=0;" vertex="1" parent="1">
                    <mxGeometry x="1097.5" y="376.5" width="60" height="30" as="geometry"/>
                </mxCell>
                <mxCell id="zg6MQ_LgUEUeMXdmGEfw-48" value="Float" style="text;html=1;strokeColor=none;fillColor=none;align=center;verticalAlign=middle;whiteSpace=wrap;rounded=0;" vertex="1" parent="1">
                    <mxGeometry x="1210" y="376.5" width="60" height="30" as="geometry"/>
                </mxCell>
                <mxCell id="zg6MQ_LgUEUeMXdmGEfw-49" value="Float" style="text;html=1;strokeColor=none;fillColor=none;align=center;verticalAlign=middle;whiteSpace=wrap;rounded=0;" vertex="1" parent="1">
                    <mxGeometry x="1315" y="376.5" width="60" height="30" as="geometry"/>
                </mxCell>
                <mxCell id="zg6MQ_LgUEUeMXdmGEfw-50" value="" style="rounded=0;whiteSpace=wrap;html=1;" vertex="1" parent="1">
                    <mxGeometry x="990" y="421.5" width="410" height="40" as="geometry"/>
                </mxCell>
                <mxCell id="zg6MQ_LgUEUeMXdmGEfw-51" value="String" style="text;html=1;strokeColor=none;fillColor=none;align=center;verticalAlign=middle;whiteSpace=wrap;rounded=0;" vertex="1" parent="1">
                    <mxGeometry x="1007.5" y="426.5" width="60" height="30" as="geometry"/>
                </mxCell>
                <mxCell id="zg6MQ_LgUEUeMXdmGEfw-52" value="Float" style="text;html=1;strokeColor=none;fillColor=none;align=center;verticalAlign=middle;whiteSpace=wrap;rounded=0;" vertex="1" parent="1">
                    <mxGeometry x="1097.5" y="426.5" width="60" height="30" as="geometry"/>
                </mxCell>
                <mxCell id="zg6MQ_LgUEUeMXdmGEfw-53" value="Float" style="text;html=1;strokeColor=none;fillColor=none;align=center;verticalAlign=middle;whiteSpace=wrap;rounded=0;" vertex="1" parent="1">
                    <mxGeometry x="1210" y="426.5" width="60" height="30" as="geometry"/>
                </mxCell>
                <mxCell id="zg6MQ_LgUEUeMXdmGEfw-54" value="Float" style="text;html=1;strokeColor=none;fillColor=none;align=center;verticalAlign=middle;whiteSpace=wrap;rounded=0;" vertex="1" parent="1">
                    <mxGeometry x="1315" y="426.5" width="60" height="30" as="geometry"/>
                </mxCell>
                <mxCell id="zg6MQ_LgUEUeMXdmGEfw-55" value="" style="rounded=0;whiteSpace=wrap;html=1;" vertex="1" parent="1">
                    <mxGeometry x="990" y="471.5" width="410" height="40" as="geometry"/>
                </mxCell>
                <mxCell id="zg6MQ_LgUEUeMXdmGEfw-56" value="String" style="text;html=1;strokeColor=none;fillColor=none;align=center;verticalAlign=middle;whiteSpace=wrap;rounded=0;" vertex="1" parent="1">
                    <mxGeometry x="1007.5" y="476.5" width="60" height="30" as="geometry"/>
                </mxCell>
                <mxCell id="zg6MQ_LgUEUeMXdmGEfw-57" value="Float" style="text;html=1;strokeColor=none;fillColor=none;align=center;verticalAlign=middle;whiteSpace=wrap;rounded=0;" vertex="1" parent="1">
                    <mxGeometry x="1097.5" y="476.5" width="60" height="30" as="geometry"/>
                </mxCell>
                <mxCell id="zg6MQ_LgUEUeMXdmGEfw-58" value="Float" style="text;html=1;strokeColor=none;fillColor=none;align=center;verticalAlign=middle;whiteSpace=wrap;rounded=0;" vertex="1" parent="1">
                    <mxGeometry x="1210" y="476.5" width="60" height="30" as="geometry"/>
                </mxCell>
                <mxCell id="zg6MQ_LgUEUeMXdmGEfw-59" value="Float" style="text;html=1;strokeColor=none;fillColor=none;align=center;verticalAlign=middle;whiteSpace=wrap;rounded=0;" vertex="1" parent="1">
                    <mxGeometry x="1315" y="476.5" width="60" height="30" as="geometry"/>
                </mxCell>
                <mxCell id="zg6MQ_LgUEUeMXdmGEfw-60" value="" style="rounded=0;whiteSpace=wrap;html=1;" vertex="1" parent="1">
                    <mxGeometry x="990" y="521.5" width="410" height="40" as="geometry"/>
                </mxCell>
                <mxCell id="zg6MQ_LgUEUeMXdmGEfw-61" value="String" style="text;html=1;strokeColor=none;fillColor=none;align=center;verticalAlign=middle;whiteSpace=wrap;rounded=0;" vertex="1" parent="1">
                    <mxGeometry x="1007.5" y="526.5" width="60" height="30" as="geometry"/>
                </mxCell>
                <mxCell id="zg6MQ_LgUEUeMXdmGEfw-62" value="Float" style="text;html=1;strokeColor=none;fillColor=none;align=center;verticalAlign=middle;whiteSpace=wrap;rounded=0;" vertex="1" parent="1">
                    <mxGeometry x="1097.5" y="526.5" width="60" height="30" as="geometry"/>
                </mxCell>
                <mxCell id="zg6MQ_LgUEUeMXdmGEfw-63" value="Float" style="text;html=1;strokeColor=none;fillColor=none;align=center;verticalAlign=middle;whiteSpace=wrap;rounded=0;" vertex="1" parent="1">
                    <mxGeometry x="1210" y="526.5" width="60" height="30" as="geometry"/>
                </mxCell>
                <mxCell id="zg6MQ_LgUEUeMXdmGEfw-64" value="Float" style="text;html=1;strokeColor=none;fillColor=none;align=center;verticalAlign=middle;whiteSpace=wrap;rounded=0;" vertex="1" parent="1">
                    <mxGeometry x="1315" y="526.5" width="60" height="30" as="geometry"/>
                </mxCell>
                <mxCell id="zg6MQ_LgUEUeMXdmGEfw-65" value="" style="endArrow=classic;html=1;" edge="1" parent="1">
                    <mxGeometry width="50" height="50" relative="1" as="geometry">
                        <mxPoint x="1435" y="341.5" as="sourcePoint"/>
                        <mxPoint x="1435" y="341.5" as="targetPoint"/>
                    </mxGeometry>
                </mxCell>
                <mxCell id="zg6MQ_LgUEUeMXdmGEfw-69" value="Home" style="rounded=1;whiteSpace=wrap;html=1;" vertex="1" parent="1">
                    <mxGeometry x="1000" y="180" width="67.5" height="30" as="geometry"/>
                </mxCell>
                <mxCell id="zg6MQ_LgUEUeMXdmGEfw-71" value="Total_Portfolio_Value" style="text;html=1;strokeColor=none;fillColor=none;align=center;verticalAlign=middle;whiteSpace=wrap;rounded=0;" vertex="1" parent="1">
                    <mxGeometry x="1275" y="180" width="120" height="30" as="geometry"/>
                </mxCell>
                <mxCell id="zg6MQ_LgUEUeMXdmGEfw-73" value="" style="rounded=0;whiteSpace=wrap;html=1;" vertex="1" parent="1">
                    <mxGeometry x="950" y="1450" width="520" height="570" as="geometry"/>
                </mxCell>
                <mxCell id="zg6MQ_LgUEUeMXdmGEfw-83" value="" style="rounded=1;whiteSpace=wrap;html=1;" vertex="1" parent="1">
                    <mxGeometry x="1110" y="1540" width="200" height="380" as="geometry"/>
                </mxCell>
                <mxCell id="zg6MQ_LgUEUeMXdmGEfw-74" value="Coin_Name" style="text;html=1;strokeColor=none;fillColor=none;align=center;verticalAlign=middle;whiteSpace=wrap;rounded=0;" vertex="1" parent="1">
                    <mxGeometry x="1180" y="1560" width="60" height="30" as="geometry"/>
                </mxCell>
                <mxCell id="zg6MQ_LgUEUeMXdmGEfw-81" value="Back" style="rounded=1;whiteSpace=wrap;html=1;" vertex="1" parent="1">
                    <mxGeometry x="1010" y="1480" width="70" height="30" as="geometry"/>
                </mxCell>
                <mxCell id="zg6MQ_LgUEUeMXdmGEfw-85" value="&quot;Amount in GBP&quot;" style="text;html=1;strokeColor=none;fillColor=none;align=center;verticalAlign=middle;whiteSpace=wrap;rounded=0;" vertex="1" parent="1">
                    <mxGeometry x="1157.5" y="1610" width="100" height="30" as="geometry"/>
                </mxCell>
                <mxCell id="zg6MQ_LgUEUeMXdmGEfw-86" value="" style="rounded=0;whiteSpace=wrap;html=1;" vertex="1" parent="1">
                    <mxGeometry x="1157.5" y="1640" width="100" height="20" as="geometry"/>
                </mxCell>
                <mxCell id="zg6MQ_LgUEUeMXdmGEfw-87" value="&quot;Amount in {Coin_Name}&quot;" style="text;html=1;strokeColor=none;fillColor=none;align=center;verticalAlign=middle;whiteSpace=wrap;rounded=0;" vertex="1" parent="1">
                    <mxGeometry x="1140.62" y="1730" width="144.38" height="30" as="geometry"/>
                </mxCell>
                <mxCell id="zg6MQ_LgUEUeMXdmGEfw-88" value="" style="rounded=0;whiteSpace=wrap;html=1;" vertex="1" parent="1">
                    <mxGeometry x="1157.81" y="1760" width="100" height="20" as="geometry"/>
                </mxCell>
                <mxCell id="zg6MQ_LgUEUeMXdmGEfw-89" value="Buy" style="rounded=1;whiteSpace=wrap;html=1;" vertex="1" parent="1">
                    <mxGeometry x="1140.62" y="1840" width="67.5" height="30" as="geometry"/>
                </mxCell>
                <mxCell id="zg6MQ_LgUEUeMXdmGEfw-103" value="You have £{Portfolio_GBP}" style="text;html=1;strokeColor=none;fillColor=none;align=center;verticalAlign=middle;whiteSpace=wrap;rounded=0;" vertex="1" parent="1">
                    <mxGeometry x="1135" y="1660" width="150" height="30" as="geometry"/>
                </mxCell>
                <mxCell id="zg6MQ_LgUEUeMXdmGEfw-104" value="You have {Coin_Amount}" style="text;html=1;strokeColor=none;fillColor=none;align=center;verticalAlign=middle;whiteSpace=wrap;rounded=0;" vertex="1" parent="1">
                    <mxGeometry x="1135" y="1780" width="150" height="30" as="geometry"/>
                </mxCell>
                <mxCell id="zg6MQ_LgUEUeMXdmGEfw-105" value="Sell" style="rounded=1;whiteSpace=wrap;html=1;" vertex="1" parent="1">
                    <mxGeometry x="1217.5" y="1840" width="67.5" height="30" as="geometry"/>
                </mxCell>
                <mxCell id="zg6MQ_LgUEUeMXdmGEfw-106" value="&lt;font style=&quot;font-size: 39px;&quot;&gt;Login/SignUp Page&lt;/font&gt;" style="text;html=1;strokeColor=none;fillColor=none;align=center;verticalAlign=middle;whiteSpace=wrap;rounded=0;" vertex="1" parent="1">
                    <mxGeometry x="-700" y="40" width="430" height="110" as="geometry"/>
                </mxCell>
                <mxCell id="zg6MQ_LgUEUeMXdmGEfw-107" value="&lt;font style=&quot;font-size: 39px;&quot;&gt;HomePage&lt;/font&gt;" style="text;html=1;strokeColor=none;fillColor=none;align=center;verticalAlign=middle;whiteSpace=wrap;rounded=0;" vertex="1" parent="1">
                    <mxGeometry x="262.5" y="20" width="317.5" height="110" as="geometry"/>
                </mxCell>
                <mxCell id="zg6MQ_LgUEUeMXdmGEfw-108" value="&lt;font style=&quot;font-size: 39px;&quot;&gt;Portfolio&lt;/font&gt;" style="text;html=1;strokeColor=none;fillColor=none;align=center;verticalAlign=middle;whiteSpace=wrap;rounded=0;" vertex="1" parent="1">
                    <mxGeometry x="1082.5" y="20" width="265" height="110" as="geometry"/>
                </mxCell>
                <mxCell id="zg6MQ_LgUEUeMXdmGEfw-109" value="&lt;font style=&quot;font-size: 39px;&quot;&gt;Buy / Sell Page&lt;/font&gt;" style="text;html=1;strokeColor=none;fillColor=none;align=center;verticalAlign=middle;whiteSpace=wrap;rounded=0;" vertex="1" parent="1">
                    <mxGeometry x="1070" y="1250" width="280" height="110" as="geometry"/>
                </mxCell>
                <mxCell id="zg6MQ_LgUEUeMXdmGEfw-110" value="&lt;span style=&quot;font-size: 39px;&quot;&gt;Single Coin View&lt;/span&gt;" style="text;html=1;strokeColor=none;fillColor=none;align=center;verticalAlign=middle;whiteSpace=wrap;rounded=0;" vertex="1" parent="1">
                    <mxGeometry x="230" y="1270" width="359" height="110" as="geometry"/>
                </mxCell>
                <mxCell id="zg6MQ_LgUEUeMXdmGEfw-111" value="" style="endArrow=classic;html=1;fontSize=39;strokeWidth=5;exitX=1;exitY=0.5;exitDx=0;exitDy=0;" edge="1" parent="1" source="7buog9ZX-WtcRgvftYjR-3">
                    <mxGeometry width="50" height="50" relative="1" as="geometry">
                        <mxPoint x="700" y="184.08999999999997" as="sourcePoint"/>
                        <mxPoint x="920" y="180" as="targetPoint"/>
                    </mxGeometry>
                </mxCell>
                <mxCell id="zg6MQ_LgUEUeMXdmGEfw-112" value="" style="endArrow=classic;html=1;fontSize=39;strokeWidth=8;" edge="1" parent="1">
                    <mxGeometry width="50" height="50" relative="1" as="geometry">
                        <mxPoint x="-40" y="516.4999999999999" as="sourcePoint"/>
                        <mxPoint x="80" y="516.4999999999999" as="targetPoint"/>
                    </mxGeometry>
                </mxCell>
                <mxCell id="zg6MQ_LgUEUeMXdmGEfw-113" value="" style="endArrow=classic;html=1;fontSize=39;strokeWidth=5;exitX=0;exitY=0.5;exitDx=0;exitDy=0;" edge="1" parent="1" source="zg6MQ_LgUEUeMXdmGEfw-69">
                    <mxGeometry width="50" height="50" relative="1" as="geometry">
                        <mxPoint x="687.5" y="101.5" as="sourcePoint"/>
                        <mxPoint x="780" y="200" as="targetPoint"/>
                    </mxGeometry>
                </mxCell>
                <mxCell id="zg6MQ_LgUEUeMXdmGEfw-114" value="" style="endArrow=classic;html=1;fontSize=39;strokeWidth=5;exitX=0.5;exitY=1;exitDx=0;exitDy=0;entryX=0.584;entryY=0;entryDx=0;entryDy=0;entryPerimeter=0;" edge="1" parent="1" source="7buog9ZX-WtcRgvftYjR-43" target="zg6MQ_LgUEUeMXdmGEfw-110">
                    <mxGeometry width="50" height="50" relative="1" as="geometry">
                        <mxPoint x="340" y="950" as="sourcePoint"/>
                        <mxPoint x="660" y="1085" as="targetPoint"/>
                    </mxGeometry>
                </mxCell>
                <mxCell id="zg6MQ_LgUEUeMXdmGEfw-115" value="" style="endArrow=classic;html=1;fontSize=39;strokeWidth=5;exitX=1;exitY=0.5;exitDx=0;exitDy=0;" edge="1" parent="1" source="zg6MQ_LgUEUeMXdmGEfw-12">
                    <mxGeometry width="50" height="50" relative="1" as="geometry">
                        <mxPoint x="700" y="1225" as="sourcePoint"/>
                        <mxPoint x="880" y="1565" as="targetPoint"/>
                    </mxGeometry>
                </mxCell>
                <mxCell id="zg6MQ_LgUEUeMXdmGEfw-116" value="" style="endArrow=classic;html=1;fontSize=39;strokeWidth=5;exitX=0;exitY=0.5;exitDx=0;exitDy=0;" edge="1" parent="1" source="zg6MQ_LgUEUeMXdmGEfw-81">
                    <mxGeometry width="50" height="50" relative="1" as="geometry">
                        <mxPoint x="580" y="1575" as="sourcePoint"/>
                        <mxPoint x="800" y="1495" as="targetPoint"/>
                    </mxGeometry>
                </mxCell>
                <mxCell id="zg6MQ_LgUEUeMXdmGEfw-117" value="" style="endArrow=classic;html=1;fontSize=39;strokeWidth=5;exitX=0.5;exitY=0;exitDx=0;exitDy=0;" edge="1" parent="1" source="zg6MQ_LgUEUeMXdmGEfw-22">
                    <mxGeometry width="50" height="50" relative="1" as="geometry">
                        <mxPoint x="-70" y="1470" as="sourcePoint"/>
                        <mxPoint x="224" y="1050" as="targetPoint"/>
                    </mxGeometry>
                </mxCell>
                <mxCell id="zg6MQ_LgUEUeMXdmGEfw-118" value="" style="endArrow=classic;html=1;fontSize=39;strokeWidth=5;exitX=0.5;exitY=0;exitDx=0;exitDy=0;" edge="1" parent="1" source="zg6MQ_LgUEUeMXdmGEfw-17">
                    <mxGeometry width="50" height="50" relative="1" as="geometry">
                        <mxPoint x="597.5" y="1450" as="sourcePoint"/>
                        <mxPoint x="960" y="1040" as="targetPoint"/>
                    </mxGeometry>
                </mxCell>
                <mxCell id="zg6MQ_LgUEUeMXdmGEfw-120" value="Reset Account" style="rounded=1;whiteSpace=wrap;html=1;" vertex="1" parent="1">
                    <mxGeometry x="1152.5" y="716.5" width="95" height="30" as="geometry"/>
                </mxCell>
                <mxCell id="zg6MQ_LgUEUeMXdmGEfw-122" value="&lt;font style=&quot;font-size: 15px;&quot;&gt;&quot;Note: you will lose all your coins and your GBP will be reset to £1000&quot;&lt;/font&gt;" style="text;html=1;strokeColor=none;fillColor=none;align=center;verticalAlign=middle;whiteSpace=wrap;rounded=0;fontSize=16;" vertex="1" parent="1">
                    <mxGeometry x="1060" y="753.5" width="280" height="30" as="geometry"/>
                </mxCell>
                <mxCell id="zg6MQ_LgUEUeMXdmGEfw-124" value="" style="endArrow=classic;html=1;fontSize=39;strokeWidth=5;exitX=0.5;exitY=1;exitDx=0;exitDy=0;entryX=0.75;entryY=0;entryDx=0;entryDy=0;" edge="1" parent="1" source="zg6MQ_LgUEUeMXdmGEfw-60" target="zg6MQ_LgUEUeMXdmGEfw-110">
                    <mxGeometry width="50" height="50" relative="1" as="geometry">
                        <mxPoint x="1180.3400000000001" y="561.5" as="sourcePoint"/>
                        <mxPoint x="1179.996" y="1141.5" as="targetPoint"/>
                    </mxGeometry>
                </mxCell>
                <mxCell id="zg6MQ_LgUEUeMXdmGEfw-126" value="Update value of money invested in the database" style="text;html=1;strokeColor=none;fillColor=none;align=center;verticalAlign=middle;whiteSpace=wrap;rounded=0;fontSize=15;" vertex="1" parent="1">
                    <mxGeometry x="1120" y="2040" width="210" height="50" as="geometry"/>
                </mxCell>
                <mxCell id="zg6MQ_LgUEUeMXdmGEfw-127" value="" style="endArrow=classic;html=1;strokeWidth=5;fontSize=15;entryX=0.5;entryY=0;entryDx=0;entryDy=0;exitX=0.5;exitY=1;exitDx=0;exitDy=0;" edge="1" parent="1" source="zg6MQ_LgUEUeMXdmGEfw-105" target="zg6MQ_LgUEUeMXdmGEfw-126">
                    <mxGeometry width="50" height="50" relative="1" as="geometry">
                        <mxPoint x="1270" y="1840" as="sourcePoint"/>
                        <mxPoint x="1320" y="1790" as="targetPoint"/>
                        <Array as="points">
                            <mxPoint x="1225" y="1950"/>
                        </Array>
                    </mxGeometry>
                </mxCell>
                <mxCell id="zg6MQ_LgUEUeMXdmGEfw-128" value="" style="endArrow=classic;html=1;strokeWidth=5;fontSize=15;entryX=0.5;entryY=0;entryDx=0;entryDy=0;exitX=0.5;exitY=1;exitDx=0;exitDy=0;" edge="1" parent="1" source="zg6MQ_LgUEUeMXdmGEfw-89" target="zg6MQ_LgUEUeMXdmGEfw-126">
                    <mxGeometry width="50" height="50" relative="1" as="geometry">
                        <mxPoint x="1180" y="1870" as="sourcePoint"/>
                        <mxPoint x="1333.75" y="2070" as="targetPoint"/>
                        <Array as="points">
                            <mxPoint x="1225" y="1950"/>
                        </Array>
                    </mxGeometry>
                </mxCell>
                <mxCell id="zg6MQ_LgUEUeMXdmGEfw-129" value="Show difference between money invested in coin compared to Value of coin" style="text;html=1;strokeColor=none;fillColor=none;align=center;verticalAlign=middle;whiteSpace=wrap;rounded=0;fontSize=15;" vertex="1" parent="1">
                    <mxGeometry x="1494" y="313" width="160" height="98.5" as="geometry"/>
                </mxCell>
                <mxCell id="zg6MQ_LgUEUeMXdmGEfw-130" value="" style="endArrow=classic;html=1;strokeWidth=5;fontSize=15;entryX=1;entryY=0.5;entryDx=0;entryDy=0;exitX=0;exitY=0.25;exitDx=0;exitDy=0;" edge="1" parent="1" source="zg6MQ_LgUEUeMXdmGEfw-129" target="zg6MQ_LgUEUeMXdmGEfw-44">
                    <mxGeometry width="50" height="50" relative="1" as="geometry">
                        <mxPoint x="1510" y="500" as="sourcePoint"/>
                        <mxPoint x="1560" y="450" as="targetPoint"/>
                    </mxGeometry>
                </mxCell>
                <mxCell id="zg6MQ_LgUEUeMXdmGEfw-132" value="id&amp;nbsp;&lt;span style=&quot;white-space: pre;&quot;&gt;&#9;&lt;/span&gt;Name&lt;span style=&quot;white-space: pre;&quot;&gt;&#9;&lt;/span&gt;Email" style="rounded=0;whiteSpace=wrap;html=1;fontSize=15;" vertex="1" parent="1">
                    <mxGeometry x="-760" y="940" width="160" height="20" as="geometry"/>
                </mxCell>
                <mxCell id="zg6MQ_LgUEUeMXdmGEfw-133" value="Userid&lt;span style=&quot;white-space: pre;&quot;&gt;&#9;&lt;/span&gt;[Coin_Name]&lt;span style=&quot;white-space: pre;&quot;&gt;&#9;&lt;/span&gt;{Coin_Amount}&lt;span style=&quot;white-space: pre;&quot;&gt;&#9;&lt;/span&gt;{Money_Invested}" style="rounded=0;whiteSpace=wrap;html=1;fontSize=15;" vertex="1" parent="1">
                    <mxGeometry x="-518.98" y="940" width="438.98" height="20" as="geometry"/>
                </mxCell>
                <mxCell id="zg6MQ_LgUEUeMXdmGEfw-134" value="User Table" style="text;html=1;strokeColor=none;fillColor=none;align=center;verticalAlign=middle;whiteSpace=wrap;rounded=0;fontSize=15;" vertex="1" parent="1">
                    <mxGeometry x="-760" y="890" width="160" height="30" as="geometry"/>
                </mxCell>
                <mxCell id="zg6MQ_LgUEUeMXdmGEfw-135" value="User Account" style="text;html=1;strokeColor=none;fillColor=none;align=center;verticalAlign=middle;whiteSpace=wrap;rounded=0;fontSize=15;" vertex="1" parent="1">
                    <mxGeometry x="-390" y="890" width="160" height="30" as="geometry"/>
                </mxCell>
                <mxCell id="zg6MQ_LgUEUeMXdmGEfw-136" value="Userid&lt;span style=&quot;white-space: pre;&quot;&gt;&#9;&lt;/span&gt;[Coin_Name]&lt;span style=&quot;white-space: pre;&quot;&gt;&#9;&lt;/span&gt;{Coin_Amount}&lt;span style=&quot;white-space: pre;&quot;&gt;&#9;&lt;/span&gt;{Money_Invested}" style="rounded=0;whiteSpace=wrap;html=1;fontSize=15;" vertex="1" parent="1">
                    <mxGeometry x="-518.98" y="960" width="438.98" height="20" as="geometry"/>
                </mxCell>
                <mxCell id="zg6MQ_LgUEUeMXdmGEfw-137" value="Userid&lt;span style=&quot;white-space: pre;&quot;&gt;&#9;&lt;/span&gt;[Coin_Name]&lt;span style=&quot;white-space: pre;&quot;&gt;&#9;&lt;/span&gt;{Coin_Amount}&lt;span style=&quot;white-space: pre;&quot;&gt;&#9;&lt;/span&gt;{Money_Invested}" style="rounded=0;whiteSpace=wrap;html=1;fontSize=15;" vertex="1" parent="1">
                    <mxGeometry x="-518.98" y="980" width="438.98" height="20" as="geometry"/>
                </mxCell>
                <mxCell id="zg6MQ_LgUEUeMXdmGEfw-138" value="Userid&lt;span style=&quot;white-space: pre;&quot;&gt;&#9;&lt;/span&gt;[Coin_Name]&lt;span style=&quot;white-space: pre;&quot;&gt;&#9;&lt;/span&gt;{Coin_Amount}&lt;span style=&quot;white-space: pre;&quot;&gt;&#9;&lt;/span&gt;{Money_Invested}" style="rounded=0;whiteSpace=wrap;html=1;fontSize=15;" vertex="1" parent="1">
                    <mxGeometry x="-518.98" y="1000" width="438.98" height="20" as="geometry"/>
                </mxCell>
            </root>
        </mxGraphModel>
    </diagram>
</mxfile>